<?xml version="1.0" encoding="UTF-8"?>
<svg id="_图层_1" data-name="图层 1" xmlns="http://www.w3.org/2000/svg" xmlns:xlink="http://www.w3.org/1999/xlink" viewBox="0 0 470.37 191.11">
  <defs>
    <style>
      .cls-1 {
        stroke-width: 0px;
      }

      .cls-1, .cls-2 {
        fill: #231815;
      }

      .cls-3 {
        clip-path: url(#clippath);
      }
    </style>
    <clipPath id="clippath">
      <path class="cls-1" d="m165.09,72.51v-10.31c0-1.21.99-2.2,2.2-2.2h10.93c1.21,0,2.2.99,2.2,2.2v10.31c0,1.21-.98,2.2-2.2,2.2h-10.93c-1.21,0-2.2-.99-2.2-2.2m0-17.33v-8.26c0-1.21.99-2.2,2.2-2.2h10.93c1.21,0,2.2.99,2.2,2.2v8.26c0,1.21-.98,2.2-2.2,2.2h-10.93c-1.21,0-2.2-.99-2.2-2.2m-2.58-13.59v30.74c-.14,10.5-2.79,18.53-7.97,25.35h3.05c3.41-5.61,5.42-9.75,6.91-18.13.21-1.21,1.25-2.11,2.48-2.11h10.79c1.96,0,2.66,1.27,2.66,2.73v45.32c0,1.42-1.16,2.58-2.58,2.58h-65.49c-1.42,0-2.58-1.16-2.58-2.58v-9.29c0-1.42,1.15-2.58,2.58-2.58h19.36v-2.32h-19.37c-1.42,0-2.58-1.15-2.58-2.58v-8.19h-2.32v8.19c0,1.43-1.16,2.58-2.58,2.58h-13.99v2.32h13.99c1.42,0,2.58,1.16,2.58,2.58v9.29c0,1.42-1.16,2.58-2.58,2.58h-18.07v2.32h91.03c1.42,0,2.58,1.16,2.58,2.58v34.89h2.38v-34.89c0-1.42,1.16-2.58,2.58-2.58h226.64v-2.32h-226.64c-1.43,0-2.58-1.16-2.58-2.58V41.6s0-.01,0-.01h-20.3Z"/>
    </clipPath>
  </defs>
  <path class="cls-1" d="m85.66,72.05c-3.41,10.57-9,19.15-16.9,27.74v2.59c1.19-1.13,2.62-2.41,3.91-3.64,2.14-2.04,5.63-.76,5.63,2.2v29.45h2.32v-41.89c0-.56.15-1.09.43-1.56,2.68-4.58,4.92-9.58,6.73-14.89h-2.11Z"/>
  <path class="cls-1" d="m131.73,97.68v-6.76c0-1.33,1.07-2.4,2.4-2.4h15.38v9.16h2.16v-8.94c0-1.33-.84-2.4-2.4-2.4h-17.52c-1.33,0-2.4,1.07-2.4,2.4v4.22c0,1.33-1.07,2.4-2.4,2.4h-14.76c-1.33,0-2.4-1.07-2.4-2.4v-7.88c0-1.32,1.08-2.4,2.4-2.4h44.86v-2.32h-5.38v-31.21h5.04v-2.18h-5.04v-5.39h-2.32c0,1.33,0,5.39-2.4,5.39h-10.94c-3.06,0-2.4-4.06-2.4-5.39h-2.32v5.39h-5.18v2.18h5.18v28.81c0,1.33-1.07,2.4-2.4,2.4h-16.7c-1.33,0-2.4-1.07-2.4-2.4v-7.07h-2.32v7.07c0,1.33-1.08,2.4-2.4,2.4h-13.14v2.32h13.14c1.32,0,2.4,1.07,2.4,2.4v7.88c0,1.33-1.08,2.4-2.4,2.4h-16.96v2.32h43.62Zm4.28-48.52h10.94c1.33,0,2.4,1.07,2.4,2.4v4.4c0,1.33-1.07,2.4-2.4,2.4h-10.94c-1.33,0-2.4-1.07-2.4-2.4v-4.4c0-1.33,1.07-2.4,2.4-2.4m0,11.31h10.94c1.33,0,2.4,1.07,2.4,2.4v4.13c0,1.33-1.07,2.4-2.4,2.4h-10.94c-1.33,0-2.4-1.08-2.4-2.4v-4.13c0-1.32,1.07-2.4,2.4-2.4m0,11.11h10.94c1.33,0,2.4,1.07,2.4,2.4v3.99c0,1.33-1.07,2.4-2.4,2.4h-10.94c-1.33,0-2.4-1.07-2.4-2.4v-3.99c0-1.33,1.07-2.4,2.4-2.4"/>
  <g>
    <path class="cls-2" d="m165.09,72.51v-10.31c0-1.21.99-2.2,2.2-2.2h10.93c1.21,0,2.2.99,2.2,2.2v10.31c0,1.21-.98,2.2-2.2,2.2h-10.93c-1.21,0-2.2-.99-2.2-2.2m0-17.33v-8.26c0-1.21.99-2.2,2.2-2.2h10.93c1.21,0,2.2.99,2.2,2.2v8.26c0,1.21-.98,2.2-2.2,2.2h-10.93c-1.21,0-2.2-.99-2.2-2.2m-2.58-13.59v30.74c-.14,10.5-2.79,18.53-7.97,25.35h3.05c3.41-5.61,5.42-9.75,6.91-18.13.21-1.21,1.25-2.11,2.48-2.11h10.79c1.96,0,2.66,1.27,2.66,2.73v45.32c0,1.42-1.16,2.58-2.58,2.58h-65.49c-1.42,0-2.58-1.16-2.58-2.58v-9.29c0-1.42,1.15-2.58,2.58-2.58h19.36v-2.32h-19.37c-1.42,0-2.58-1.15-2.58-2.58v-8.19h-2.32v8.19c0,1.43-1.16,2.58-2.58,2.58h-13.99v2.32h13.99c1.42,0,2.58,1.16,2.58,2.58v9.29c0,1.42-1.16,2.58-2.58,2.58h-18.07v2.32h91.03c1.42,0,2.58,1.16,2.58,2.58v34.89h2.38v-34.89c0-1.42,1.16-2.58,2.58-2.58h226.64v-2.32h-226.64c-1.43,0-2.58-1.16-2.58-2.58V41.6s0-.01,0-.01h-20.3Z"/>
    <g class="cls-3">
      <rect class="cls-1" x="86.82" y="41.59" width="325.21" height="126.27"/>
    </g>
  </g>
</svg>